Coordinates
version=1
nRows=8
nColumns=42
inDegrees=yes

Units are S.I. units (second, meters, Newtons, ...)
If the header above contains a line with 'inDegrees', this indicates whether rotational values are in degrees (yes) or radians (no).

endheader
time	pelvis_tilt	pelvis_list	pelvis_rotation	pelvis_tx	pelvis_ty	pelvis_tz	hip_flexion_r	hip_adduction_r	hip_rotation_r	knee_angle_r	knee_adduction_r	knee_angle_r_beta	ankle_angle_r	subtalar_angle_r	mtp_angle_r	hip_flexion_l	hip_adduction_l	hip_rotation_l	knee_angle_l	knee_adduction_l	knee_angle_l_beta	ankle_angle_l	subtalar_angle_l	mtp_angle_l	lumbar_extension	lumbar_bending	lumbar_rotation	arm_flex_r	arm_add_r	arm_rot_r	elbow_flex_r	pro_sup_r	wrist_flex_r	wrist_dev_r	arm_flex_l	arm_add_l	arm_rot_l	elbow_flex_l	pro_sup_l	wrist_flex_l	wrist_dev_l
      2.73000000	     20.01983532	      7.06162383	      3.45090833	      0.73386455	      0.89987175	      0.13664323	    -29.86778962	    -10.89836137	    -39.64049886	     50.13767739	    -15.42338240	      0.87506755	      3.44138010	     26.81626992	     -7.50116325	      5.52184814	     13.94905943	    -11.66393260	     31.16030424	    -11.51440305	      0.54384990	     20.26955705	     21.91766812	     -7.50116325	    -43.82652525	     -3.62246318	     -2.56999014	      6.03269159	    -16.15766605	     -2.68687123	     46.86079973	     90.00000001	      0.00000000	      0.00000000	     -0.93893297	     -8.64106476	    -10.99993323	     32.31263394	     90.00000001	      0.00000000	      0.00000000
      2.74000000	     21.03754464	      7.57428357	      3.36695151	      0.74706799	      0.90283481	      0.13569720	    -29.83614087	    -11.85054736	    -39.57814795	     52.42401164	    -15.59398887	      0.91497161	      2.32412819	     23.92307383	     -7.50111821	      3.01389815	     14.41405599	    -12.55451308	     30.28111592	    -11.83991652	      0.52850517	     21.20694203	     24.27395163	     -7.50111821	    -44.96350588	     -4.00185946	     -3.01355417	      5.70970900	    -15.97516492	     -2.30114592	     46.96504312	     90.00000001	      0.00000000	      0.00000000	     -0.64496345	     -9.10981414	    -10.74836010	     33.51871055	     90.00000001	      0.00000000	      0.00000000
      2.75000000	     22.14159788	      7.97663915	      3.18262486	      0.76007350	      0.90595481	      0.13489277	    -29.77672502	    -12.72347271	    -39.53459954	     54.49610414	    -15.90539485	      0.95113645	      2.21059049	     23.58076687	     -7.50110707	      0.36419156	     14.72719312	    -13.06973877	     29.43212974	    -11.85641685	      0.51368757	     21.89280870	     24.76566830	     -7.50110707	    -46.16376102	     -4.28189994	     -3.28022634	      5.42984501	    -15.82703223	     -2.18597772	     46.84090206	     90.00000001	      0.00000000	      0.00000000	      0.04731012	     -9.41635187	    -10.66611674	     33.97454420	     90.00000001	      0.00000000	      0.00000000
      2.76000000	     23.24062025	      8.32367345	      3.02291715	      0.77308882	      0.90904827	      0.13418026	    -29.65067545	    -13.54511296	    -39.49684452	     56.44119085	    -16.02401112	      0.98508461	      2.64541373	     22.91921258	     -7.50109116	     -2.42863251	     15.09570163	    -13.38274486	     28.21469429	    -12.03620430	      0.49243931	     22.67303317	     25.92491111	     -7.50109116	    -47.30965781	     -4.51657137	     -3.54120139	      5.12008101	    -15.58644744	     -1.97632069	     46.77836666	     90.00000001	      0.00000000	      0.00000000	      0.56040401	     -9.82536009	    -10.54680486	     34.68613612	     90.00000001	      0.00000000	      0.00000000
      2.77000000	     24.26062091	      8.40538723	      2.91532708	      0.78589573	      0.91195541	      0.13349186	    -29.28036711	    -14.00977742	    -39.40546460	     58.17347092	    -16.15884537	      1.01531860	      3.84469883	     21.80302013	     -7.50101642	     -4.81119418	     14.89446713	    -14.95571749	     27.38970643	    -12.31970569	      0.47804056	     23.72709331	     29.68120117	     -7.50101642	    -48.39201328	     -4.43936492	     -3.90455988	      4.88787674	    -15.58469198	     -1.17435314	     46.82030186	     90.00000001	      0.00000000	      0.00000000	      0.62638452	    -10.43776356	     -9.51623997	     36.64036987	     90.00000001	      0.00000000	      0.00000000
      2.78000000	     24.84735062	      8.41615310	      2.73685119	      0.79830411	      0.91456334	      0.13303268	    -28.09672103	    -14.49404824	    -39.38504968	     59.88025599	    -16.59507169	      1.04510762	      4.71291415	     21.62260724	     -7.50100108	     -6.86791701	     14.82391110	    -14.95373063	     26.50008882	    -12.07886055	      0.46251380	     24.22152675	     29.94542052	     -7.50100108	    -49.05333244	     -4.40954219	     -3.99005417	      4.68155592	    -15.36879340	     -1.03679284	     46.64815067	     90.00000001	      0.00000000	      0.00000000	      1.38926925	    -10.69963883	     -9.39820711	     37.10375906	     90.00000001	      0.00000000	      0.00000000
      2.79000000	     25.01650606	      8.29592934	      2.55561350	      0.81034355	      0.91668016	      0.13262086	    -26.16120984	    -14.88027032	    -39.36106576	     61.56544007	    -17.21073835	      1.07451963	      5.99934054	     21.49370047	     -7.50098620	     -8.34112140	     14.67161355	    -14.81726874	     25.75307106	    -11.82841753	      0.44947588	     24.68183690	     30.28414903	     -7.50098620	    -49.33819101	     -4.29154209	     -4.05783953	      4.59947912	    -15.14415113	     -0.88607995	     46.45677470	     90.00000001	      0.00000000	      0.00000000	      2.13716346	    -10.97227818	     -9.28985229	     37.67350774	     90.00000001	      0.00000000	      0.00000000
      2.80000000	     25.03240714	      8.19064277	      2.45531853	      0.82224655	      0.91846377	      0.13221922	    -24.01009398	    -15.20759136	    -39.27718380	     63.15824733	    -17.68253644	      1.10231937	      8.75139441	     21.80215248	     -7.50095701	     -9.56595261	     14.54928580	    -14.69106213	     25.11468981	    -11.66312008	      0.43833403	     25.31468837	     30.99036173	     -7.50095701	    -49.49315150	     -4.19597857	     -4.28450973	      4.68392492	    -14.84737393	     -0.60830388	     45.93671388	     90.00000001	      0.00000000	      0.00000000	      2.73459997	    -11.35885868	     -9.02837016	     38.53038613	     90.00000001	      0.00000000	      0.00000000
